<svg id="Layer_0_Image" data-name="Layer 0 Image" xmlns="http://www.w3.org/2000/svg" viewBox="0 0 618.32 220.75" width="100%" height="100%" preserveAspectRatio="xMinYMin meet"><defs><style>.cls-1{fill:#fff;}.cls-2{fill:#83cee2;}.cls-3{fill:#ba2647;}.cls-4{fill:#8ab74e;}.cls-5{fill:#64b5d6;}</style></defs><path class="cls-1" d="M170,121.57v1.08c0,4.32,0,8.64,0,13a2.07,2.07,0,0,1-.68,1.67,35.27,35.27,0,0,1-15.91,8.85,44.86,44.86,0,0,1-8,1.27,40.82,40.82,0,0,1-19.25-3.19,39.75,39.75,0,0,1-13.38-9.49,46.84,46.84,0,0,1-9.6-15.58,55.88,55.88,0,0,1-3-11.28,62.74,62.74,0,0,1-.73-12.17,65.37,65.37,0,0,1,3.76-20.11,48.93,48.93,0,0,1,11-17.74A43,43,0,0,1,135,45.93a45.55,45.55,0,0,1,7.55-1.13,39.31,39.31,0,0,1,6.69.11c7.83.71,14.89,3.29,20.76,8.71a34.3,34.3,0,0,1,5.88,7.22,5.86,5.86,0,0,0,.84,1.14c.61-2.49.35-5,.57-7.47s.21-4.93.3-7.44h16.2a1.76,1.76,0,0,1,.07.41c-.14,2-.34,4-.41,6-.15,3.95-.24,7.91-.32,11.86-.07,3-.12,6-.13,9,0,18.8,0,37.6,0,56.4,0,4.23-.05,8.48-.32,12.7a72.67,72.67,0,0,1-4,20.56,39.94,39.94,0,0,1-8.51,14,36,36,0,0,1-8.24,6.33,52,52,0,0,1-15.83,5.81,53.43,53.43,0,0,1-11.76,1.21c-2,0-3.92-.05-5.88,0a52,52,0,0,1-9.4-.81,66.06,66.06,0,0,1-11.45-2.83,42,42,0,0,1-8.34-3.83c-.34-.2-.66-.43-1-.68,1.51-4.67,3-9.31,4.54-14.06a7.13,7.13,0,0,1,.87.41,50.4,50.4,0,0,0,16.86,6.43,58.92,58.92,0,0,0,13.44,1.17,36,36,0,0,0,15.35-3.54,25.58,25.58,0,0,0,12.09-12.78,36.85,36.85,0,0,0,3.18-12.55c.22-2.9.4-5.82.39-8.73q-.06-26.81-.21-53.62a27.74,27.74,0,0,0-6.93-18.15,23.8,23.8,0,0,0-14.88-8.4c-8.45-1.3-16.18.46-22.8,6.12a29.6,29.6,0,0,0-6.52,8.07,43.06,43.06,0,0,0-4.8,14,57.54,57.54,0,0,0-.64,13.49c.47,7.22,2.28,14.07,6.34,20.16A26.27,26.27,0,0,0,141.94,133a29.44,29.44,0,0,0,8.83.39,25.48,25.48,0,0,0,16.4-8.25c.48-.53.94-1.09,1.39-1.65S169.43,122.34,170,121.57Z"/><path class="cls-2" d="M320.17,123.83a29.57,29.57,0,0,0,3.24,3.83,28,28,0,0,0,11.49,6.94,29,29,0,0,0,5,1,28.17,28.17,0,0,0,5.73.13,31.85,31.85,0,0,0,5-.8,26.83,26.83,0,0,0,15.63-10.57,36,36,0,0,0,5-9.81A52.65,52.65,0,0,0,373,107a69.32,69.32,0,0,0,.63-14.53,38,38,0,0,0-.82-6,50.44,50.44,0,0,0-1.54-5.95,34.57,34.57,0,0,0-6.18-11.43,26.19,26.19,0,0,0-12.87-8.64,22.46,22.46,0,0,0-5.46-1c-1.27,0-2.55-.22-3.81-.17a34.2,34.2,0,0,0-3.76.48,22.51,22.51,0,0,0-4.34,1.12,29.44,29.44,0,0,0-8.73,5A28.39,28.39,0,0,0,318.23,76,46.7,46.7,0,0,0,316,82a32.91,32.91,0,0,0-.59,3.62,27.49,27.49,0,0,0-.27,5.36q0,22.2,0,44.4c0,1.43-.19,2.86-.15,4.29.37,15.91,0,31.82.16,47.73a9.57,9.57,0,0,1,0,1.07,3.22,3.22,0,0,1-.23.59H296.69v-1.43q0-58.08,0-116.16c0-1.48,0-3,0-4.44q-.11-5.2-.25-10.41c-.05-1.79-.07-3.59-.26-5.37-.16-1.38-.16-2.75-.22-4.19h16.36c.08.89.17,1.79.22,2.68.11,1.79.17,3.58.27,5.37.19,3,.39,6,.59,9.07.26.18.41.11.62-.2,1-1.55,2-3.15,3.16-4.6a36.9,36.9,0,0,1,10-8.93A38.44,38.44,0,0,1,334,47.22a42,42,0,0,1,6-1.64,39.71,39.71,0,0,1,7.69-.76,17.05,17.05,0,0,1,2.13-.14c2,.24,4.09.3,6.14.58a38.26,38.26,0,0,1,13,4.48,37.83,37.83,0,0,1,7.15,5.13,43.47,43.47,0,0,1,7.71,9.19,50.27,50.27,0,0,1,4.9,10.12,66.11,66.11,0,0,1,2.59,9.58c.27,1.35.39,2.74.53,4.12a62.47,62.47,0,0,1,.46,9.17,66.37,66.37,0,0,1-.65,8.9c-.39,2.1-.66,4.21-1,6.31-.14.82-.37,1.61-.59,2.41a56.21,56.21,0,0,1-4.67,12,40.24,40.24,0,0,1-5.16,7.69c-1.61,1.82-3.29,3.6-5.07,5.26a36.45,36.45,0,0,1-6.35,4.6,42.7,42.7,0,0,1-16,5.53,39.08,39.08,0,0,1-7.25.45,36.33,36.33,0,0,1-6.73-.69c-1.84-.41-3.73-.7-5.52-1.29a34,34,0,0,1-7.51-3.5,30.38,30.38,0,0,1-5.63-4.4,1.47,1.47,0,0,1-.51-1.14c0-5.12,0-10.24,0-15.36Z"/><path class="cls-2" d="M288,147.81H269.79c-.07-.69-.18-1.35-.18-2q0-27.36,0-54.72c0-1.8.07-3.6-.06-5.4A37.21,37.21,0,0,0,266,71.31,19.38,19.38,0,0,0,256.6,62,19.69,19.69,0,0,0,250,60.22a43.23,43.23,0,0,0-4.4-.23,23.63,23.63,0,0,0-11.82,3.43,26.39,26.39,0,0,0-6.5,5.39A29.24,29.24,0,0,0,220.91,81a13.18,13.18,0,0,0-.3,2.59c-.05,1.52,0,3,0,4.56v59.49c-.88.26-15.65.36-18.38.13V0h18.38V62.82l.25.08c.32-.47.66-.93,1-1.42a30.85,30.85,0,0,1,3.41-4.57,34,34,0,0,1,9.14-7.17,39.36,39.36,0,0,1,8-3.49,29.31,29.31,0,0,1,5.55-1.17c1.38-.12,2.76-.4,4.14-.39,1.73,0,3.47.25,5.21.36a25.19,25.19,0,0,1,5.1,1A33.28,33.28,0,0,1,269.56,49a31.54,31.54,0,0,1,6.79,5,31.21,31.21,0,0,1,5,6.22,41.79,41.79,0,0,1,5,12.22,50.9,50.9,0,0,1,1.27,7.47c.22,2.46.44,4.91.44,7.37q0,29.7,0,59.4Z"/><path class="cls-1" d="M61.93,51q-2.19,6.54-4.34,13c-1.71-.82-3.34-1.65-5-2.39a38.8,38.8,0,0,0-12.07-3.16A26.82,26.82,0,0,0,30.9,59a13.89,13.89,0,0,0-9,6.59,13.4,13.4,0,0,0-1.56,8.08c.41,4.23,2.71,7.23,6.09,9.54a48,48,0,0,0,9,4.6c3.64,1.5,7.3,3,10.89,4.56A41.27,41.27,0,0,1,56,98.49a25.43,25.43,0,0,1,9.11,15.29,30.69,30.69,0,0,1-1.74,17.69,27.65,27.65,0,0,1-13.12,13.91,41.32,41.32,0,0,1-13,4.15,57.32,57.32,0,0,1-12.06.63,57.72,57.72,0,0,1-23.43-5.95c-.57-.29-1.12-.61-1.77-1a5.39,5.39,0,0,1,.14-1.14Q2,136,4,129.93a4,4,0,0,1,.28-.48l1.05.56a52.4,52.4,0,0,0,16.83,5.84,40.51,40.51,0,0,0,5.7.6A26.29,26.29,0,0,0,40,134.21a13.11,13.11,0,0,0,7.72-9.86,14.88,14.88,0,0,0-2.38-11.73,20,20,0,0,0-6.36-5.37,68.84,68.84,0,0,0-10.66-4.78A59.53,59.53,0,0,1,14,95,28.66,28.66,0,0,1,4.72,84.28a22.57,22.57,0,0,1-2.08-7.56,27.27,27.27,0,0,1,2.6-14.51,27.79,27.79,0,0,1,10.6-11.77,36.39,36.39,0,0,1,14-5.13,46.39,46.39,0,0,1,8.23-.59,51.52,51.52,0,0,1,18.44,3.5A26.12,26.12,0,0,1,61.93,51Z"/><path class="cls-2" d="M475.72,63.94c-2.07-.8-4.08-1.61-6.12-2.33a34.71,34.71,0,0,0-7.13-1.67,43.18,43.18,0,0,0-5.09-.48c-1.31,0-2.62-.21-3.92-.16a39,39,0,0,0-14,2.91,32.13,32.13,0,0,0-16.25,15.54,41.59,41.59,0,0,0-3.64,10.84c-.3,1.51-.32,3.07-.56,4.6a38.65,38.65,0,0,0-.18,6.8,48.84,48.84,0,0,0,.62,5.78,39.64,39.64,0,0,0,2.18,8.09,33.73,33.73,0,0,0,5.48,9.54,31.79,31.79,0,0,0,11.09,8.66,35.81,35.81,0,0,0,8,2.59,43,43,0,0,0,11.76.64,49.19,49.19,0,0,0,15.31-3.39l2.86-1.12s.08,0,.2,0a4,4,0,0,1,.08.63c0,4.28,0,8.56,0,12.84a1.22,1.22,0,0,1-.89,1.33,47.87,47.87,0,0,1-9.09,3c-1.7.33-3.41.67-5.12.9q-3.24.44-6.5.67a39.47,39.47,0,0,1-4.07,0c-2.23-.05-4.48,0-6.69-.28a52.17,52.17,0,0,1-19.38-5.79,46.17,46.17,0,0,1-8.37-5.87,45,45,0,0,1-8.63-10.43,46.47,46.47,0,0,1-4.7-10.59,65.17,65.17,0,0,1-1.95-8.4,67.24,67.24,0,0,1-.62-15.13,52.94,52.94,0,0,1,2.22-12.44,52.09,52.09,0,0,1,7.23-15.13,48.68,48.68,0,0,1,4.37-5.36,48.13,48.13,0,0,1,8.95-7.46,52.45,52.45,0,0,1,10.29-5.1,62.7,62.7,0,0,1,8.3-2.33c1.19-.26,2.42-.38,3.63-.56a45.53,45.53,0,0,1,7-.52c1.31,0,2.62-.16,3.93-.15,1.79,0,3.58.08,5.37.22a37.27,37.27,0,0,1,11,2.14c.81.32,1.57.76,2.37,1.09a.92.92,0,0,1,.63,1c0,1.6,0,3.2,0,4.8v10Z"/><path class="cls-1" d="M92.13,147.25h-18c-.09-.06-.13-.07-.15-.1a.25.25,0,0,1,0-.12l0-100.27a2.61,2.61,0,0,1,.08-.38H92.13Z"/><path class="cls-3" d="M92,25.44h17.87L92,43.32Z"/><path class="cls-2" d="M55.71,43.61c.48-.79,16.71-17.1,17.83-17.92a.38.38,0,0,1,.1,0,.19.19,0,0,1,0,.1c0,.28,0,.56,0,.84v17Z"/><path class="cls-4" d="M91.91,25.17H74.12L91.91,7.37Z"/><path class="cls-5" d="M320.17,123.83h-.4v-.62Z"/><path class="cls-1" d="M329,203.69c.14,8.57,5.61,12.09,12,12.09a22.89,22.89,0,0,0,9.65-1.8l1.08,4.54a28.19,28.19,0,0,1-11.59,2.16c-10.73,0-17.14-7.06-17.14-17.57s6.19-18.79,16.34-18.79c11.38,0,14.4,10,14.4,16.42a24.66,24.66,0,0,1-.21,2.95Zm18.57-4.54c.08-4-1.65-10.3-8.78-10.3-6.41,0-9.22,5.91-9.72,10.3Z"/><path class="cls-1" d="M391.6,168.84V211c0,3.1.07,6.62.29,9H386.2l-.29-6.05h-.14c-1.95,3.89-6.2,6.84-11.89,6.84-8.42,0-14.9-7.13-14.9-17.71-.07-11.59,7.13-18.72,15.62-18.72,5.33,0,8.93,2.52,10.52,5.33h.14V168.84Zm-6.34,30.45a11,11,0,0,0-.29-2.66,9.31,9.31,0,0,0-9.14-7.34c-6.55,0-10.44,5.76-10.44,13.46,0,7.06,3.45,12.89,10.29,12.89a9.53,9.53,0,0,0,9.29-7.56,10.82,10.82,0,0,0,.29-2.74Z"/><path class="cls-1" d="M431.27,210.46c0,3.6.07,6.76.29,9.5h-5.62l-.36-5.69h-.14a13.12,13.12,0,0,1-11.52,6.48c-5.48,0-12-3-12-15.26V185.11h6.34v19.3c0,6.62,2,11.09,7.77,11.09a9.18,9.18,0,0,0,8.36-5.76,9.29,9.29,0,0,0,.57-3.24V185.11h6.34Z"/><path class="cls-1" d="M466.62,218.66a23.26,23.26,0,0,1-10,2c-10.51,0-17.35-7.13-17.35-17.78s7.34-18.51,18.72-18.51a21.21,21.21,0,0,1,8.78,1.8l-1.43,4.9a14.66,14.66,0,0,0-7.35-1.66c-8,0-12.31,5.9-12.31,13.18,0,8.06,5.18,13,12.09,13a18,18,0,0,0,7.78-1.73Z"/><path class="cls-1" d="M493.33,220l-.5-4.39h-.22A13,13,0,0,1,482,220.75c-7.06,0-10.66-5-10.66-10,0-8.42,7.49-13,20.95-13v-.72c0-2.88-.79-8.06-7.92-8.06a17.4,17.4,0,0,0-9.07,2.59l-1.44-4.18a21.66,21.66,0,0,1,11.45-3.09c10.65,0,13.25,7.27,13.25,14.25v13a49.35,49.35,0,0,0,.57,8.35Zm-.93-17.78c-6.92-.15-14.77,1.08-14.77,7.84,0,4.11,2.74,6,6,6a8.68,8.68,0,0,0,8.43-5.83,6.83,6.83,0,0,0,.36-2Z"/><path class="cls-1" d="M516.08,175.1v10h9.08v4.82h-9.08v18.8c0,4.32,1.23,6.77,4.76,6.77a13.86,13.86,0,0,0,3.67-.44l.29,4.76a15.65,15.65,0,0,1-5.62.86,8.81,8.81,0,0,1-6.84-2.66c-1.8-1.88-2.45-5-2.45-9.08v-19h-5.4v-4.82h5.4v-8.35Z"/><path class="cls-1" d="M539.34,175.32a3.93,3.93,0,0,1-7.85,0,3.86,3.86,0,0,1,4-4A3.76,3.76,0,0,1,539.34,175.32ZM532.28,220V185.11h6.34V220Z"/><path class="cls-1" d="M580.67,202.25c0,12.89-8.93,18.5-17.35,18.5-9.44,0-16.71-6.91-16.71-17.93,0-11.66,7.63-18.5,17.28-18.5C573.9,184.32,580.67,191.59,580.67,202.25Zm-27.65.36c0,7.63,4.39,13.39,10.58,13.39s10.59-5.69,10.59-13.54c0-5.9-3-13.39-10.44-13.39S553,196,553,202.61Z"/><path class="cls-1" d="M588.66,194.54c0-3.6-.07-6.55-.29-9.43H594l.36,5.76h.14A12.82,12.82,0,0,1,606,184.32c4.83,0,12.31,2.88,12.31,14.83V220H612V199.87c0-5.62-2.09-10.3-8.07-10.3a9,9,0,0,0-8.49,6.48,9.13,9.13,0,0,0-.44,3v21h-6.33Z"/></svg>